<svg width="20" height="21" viewBox="0 0 20 21" fill="none" xmlns="http://www.w3.org/2000/svg">
<path d="M4.21045 6.50876V13.6361C4.21045 15.2106 6.76325 16.487 9.91229 16.487C13.0613 16.487 15.6141 15.2106 15.6141 13.6361V6.50876M4.21045 6.50876C4.21045 8.08328 6.76325 9.35968 9.91229 9.35968C13.0613 9.35968 15.6141 8.08328 15.6141 6.50876M4.21045 6.50876C4.21045 4.93424 6.76325 3.65784 9.91229 3.65784C13.0613 3.65784 15.6141 4.93424 15.6141 6.50876M15.6141 10.0724C15.6141 11.6469 13.0613 12.9233 9.91229 12.9233C6.76325 12.9233 4.21045 11.6469 4.21045 10.0724" stroke="#3A3A3A" stroke-width="1.4"/>
</svg>
