<svg width="16" height="16" viewBox="0 0 16 16" fill="none" xmlns="http://www.w3.org/2000/svg">
<path d="M9.00033 9.66634L8.98665 9.80111C8.92447 10.1049 8.65548 10.3333 8.33333 10.3333C8.01118 10.3333 7.74219 10.1049 7.68001 9.80111L7.66634 9.66634V8.33333C7.66634 7.96514 7.96514 7.66634 8.33333 7.66634C8.70152 7.66634 9.00033 7.96514 9.00033 8.33333V9.66634Z" fill="#AFAFAF" fill-opacity="0.8"/>
<path fill-rule="evenodd" clip-rule="evenodd" d="M11 13.667C12.8409 13.667 14.333 12.174 14.333 10.333V7.66699C14.333 6.05436 13.1881 4.70869 11.6667 4.39972V5H10.3337V4.33301H6.33366V5H4.99967V4.39984C3.47837 4.70905 2.33301 6.05457 2.33301 7.66699V10.333C2.33301 12.174 3.82604 13.667 5.66699 13.667H11ZM11 5.66699C12.1046 5.66699 13 6.56242 13 7.66699V10.333C13 11.4376 12.1046 12.333 11 12.333H5.66699C4.56242 12.333 3.66699 11.4376 3.66699 10.333V7.66699C3.66699 6.56242 4.56242 5.66699 5.66699 5.66699H11Z" fill="#AFAFAF" fill-opacity="0.8"/>
<path fill-rule="evenodd" clip-rule="evenodd" d="M8.33366 1.66699C9.43808 1.66717 10.3337 2.56253 10.3337 3.66699V4.33301V5H11.6667V4.39972V3.66699C11.6667 1.82615 10.1745 0.333184 8.33366 0.333008C6.49271 0.333008 4.99967 1.82604 4.99967 3.66699V4.39984C5.21529 4.35602 5.43846 4.33301 5.66699 4.33301H6.33366V3.66699C6.33366 2.56242 7.22909 1.66699 8.33366 1.66699Z" fill="#AFAFAF" fill-opacity="0.8"/>
<path d="M4.99967 5H6.33366V4.33301H5.66699C5.43846 4.33301 5.21529 4.35602 4.99967 4.39984V5Z" fill="#AFAFAF" fill-opacity="0.8"/>
</svg>
