<svg width="20" height="20" viewBox="0 0 20 20" fill="none" xmlns="http://www.w3.org/2000/svg">
<path d="M15.9994 14.6664L16.1342 14.6801C16.438 14.7422 16.6664 15.0112 16.6664 15.3334C16.6664 15.6555 16.438 15.9245 16.1342 15.9867L15.9994 16.0004H10.6664C10.2982 16.0004 9.99943 15.7016 9.99943 15.3334C9.99943 14.9652 10.2982 14.6664 10.6664 14.6664H15.9994Z" fill="#3A3A3A"/>
<path fill-rule="evenodd" clip-rule="evenodd" d="M12.7377 4.33403C13.5232 3.69355 14.6813 3.73966 15.4135 4.47173L15.5287 4.58598L15.6654 4.73735C16.2638 5.47065 16.2638 6.52944 15.6654 7.26274L15.5287 7.41411L14.486 8.45667C14.7005 8.22854 14.7238 7.88603 14.5564 7.63286L14.4714 7.52837L14 7.05697L14.5854 6.47173L14.6713 6.36723C14.8422 6.10846 14.8132 5.7562 14.5854 5.52837L14.4711 5.41411C14.2433 5.18641 13.8919 5.15836 13.6332 5.32915L13.5287 5.41411L12.9429 5.99981L12.4714 5.52837L12.3669 5.44341C12.1149 5.27674 11.7742 5.29913 11.5461 5.51103L12.5854 4.47173L12.7377 4.33403ZM11.5107 5.54636C11.5164 5.54028 11.5222 5.53428 11.5281 5.52837C11.534 5.52245 11.54 5.51667 11.5461 5.51103L11.5107 5.54636ZM11.9994 6.94305L12.9429 5.99981L14 7.05697L13.0566 8.00027L11.9994 6.94305ZM14.4563 8.48638L14.486 8.45667C14.4813 8.46175 14.4764 8.46677 14.4714 8.47173C14.4665 8.47671 14.4614 8.48159 14.4563 8.48638ZM14.4563 8.48638C14.2282 8.70077 13.8857 8.72405 13.6326 8.55669L13.5281 8.47173L13.0566 8.00027L6.9926 14.0635L5.58244 14.4161L5.93498 13.0059L11.9994 6.94305L11.5281 6.47173L11.4431 6.36723C11.2765 6.11515 11.2988 5.77449 11.5107 5.54636L4.86174 12.1954C4.79772 12.2594 4.74769 12.3355 4.71428 12.419L4.68596 12.5049L4.01994 15.1719C3.96323 15.399 4.02931 15.6392 4.19475 15.8047C4.36033 15.9703 4.60135 16.0373 4.82853 15.9805L7.49455 15.3135L7.58049 15.2862C7.66416 15.2528 7.73997 15.2019 7.80412 15.1377L14.4563 8.48638Z" fill="#3A3A3A"/>
<path d="M12.4714 5.52837L12.3669 5.44341C12.1149 5.27674 11.7742 5.29913 11.5461 5.51103L11.5107 5.54636C11.2988 5.77449 11.2765 6.11515 11.4431 6.36723L11.5281 6.47173L11.9994 6.94305L12.9429 5.99981L12.4714 5.52837Z" fill="#3A3A3A"/>
<path d="M14.5564 7.63286L14.4714 7.52837L14 7.05697L13.0566 8.00027L13.5281 8.47173L13.6326 8.55669C13.8857 8.72405 14.2282 8.70077 14.4563 8.48638L14.486 8.45667C14.7005 8.22854 14.7238 7.88603 14.5564 7.63286Z" fill="#3A3A3A"/>
</svg>
