<svg width="20" height="20" viewBox="0 0 20 20" fill="none" xmlns="http://www.w3.org/2000/svg">
<path d="M8.17781 13.3556C6.73068 13.3556 5.50606 12.8543 4.50395 11.8517C3.50185 10.849 3.00053 9.62441 3 8.17781C2.99947 6.73121 3.50079 5.50659 4.50395 4.50395C5.50712 3.50132 6.73174 3 8.17781 3C9.62388 3 10.8488 3.50132 11.8525 4.50395C12.8562 5.50659 13.3572 6.73121 13.3556 8.17781C13.3556 8.76197 13.2627 9.31294 13.0768 9.83073C12.8909 10.3485 12.6387 10.8065 12.3201 11.2048L16.7809 15.6657C16.927 15.8118 17 15.9976 17 16.2233C17 16.449 16.927 16.6349 16.7809 16.7809C16.6349 16.927 16.449 17 16.2233 17C15.9976 17 15.8118 16.927 15.6657 16.7809L11.2048 12.3201C10.8065 12.6387 10.3485 12.8909 9.83073 13.0768C9.31294 13.2627 8.76197 13.3556 8.17781 13.3556ZM8.17781 11.7624C9.17354 11.7624 10.02 11.4141 10.7173 10.7173C11.4146 10.0206 11.763 9.17407 11.7624 8.17781C11.7619 7.18155 11.4135 6.33531 10.7173 5.63909C10.0211 4.94287 9.1746 4.59423 8.17781 4.59317C7.18102 4.59211 6.33478 4.94075 5.63909 5.63909C4.9434 6.33743 4.59477 7.18367 4.59317 8.17781C4.59158 9.17195 4.94022 10.0185 5.63909 10.7173C6.33796 11.4162 7.1842 11.7646 8.17781 11.7624Z" fill="#3A3A3A"/>
</svg>
