<svg width="20" height="20" viewBox="0 0 20 20" fill="none" xmlns="http://www.w3.org/2000/svg">
<path d="M7.83236 8.66667V6C7.83236 5.46957 8.06074 4.96086 8.46725 4.58579C8.87376 4.21071 9.42511 4 10 4C10.5749 4 11.1262 4.21071 11.5328 4.58579C11.9393 4.96086 12.1676 5.46957 12.1676 6V8.66667M14.3353 7.33333L14.9979 15.282C15.0055 15.3736 14.9926 15.4657 14.9599 15.5524C14.9271 15.6392 14.8753 15.7188 14.8077 15.7862C14.74 15.8536 14.658 15.9074 14.5668 15.9442C14.4755 15.981 14.377 16 14.2775 16H5.72252C5.62295 16 5.52445 15.981 5.43321 15.9442C5.34197 15.9074 5.25996 15.8536 5.19232 15.7862C5.12467 15.7188 5.07286 15.6392 5.04014 15.5524C5.00741 15.4657 4.99448 15.3736 5.00215 15.282L5.66472 7.33333H14.3353Z" stroke="#3A3A3A" stroke-width="1.3" stroke-linecap="round" stroke-linejoin="round"/>
</svg>
