<svg width="89" height="16" viewBox="0 0 89 16" fill="none" xmlns="http://www.w3.org/2000/svg">
<path opacity="0.2" d="M79.9577 0.984334C80.1364 0.596898 80.687 0.596897 80.8657 0.984332L82.7899 5.15584C82.8627 5.31374 83.0123 5.42246 83.185 5.44294L87.7469 5.98382C88.1706 6.03406 88.3408 6.55775 88.0275 6.84744L84.6548 9.96646C84.5271 10.0845 84.47 10.2604 84.5039 10.431L85.3992 14.9368C85.4823 15.3553 85.0368 15.6789 84.6645 15.4705L80.6559 13.2267C80.5042 13.1417 80.3192 13.1417 80.1675 13.2267L76.1589 15.4705C75.7866 15.6789 75.3411 15.3553 75.4242 14.9368L76.3195 10.431C76.3534 10.2604 76.2963 10.0845 76.1686 9.96646L72.7959 6.84744C72.4826 6.55775 72.6528 6.03406 73.0765 5.98382L77.6384 5.44294C77.8111 5.42246 77.9607 5.31374 78.0335 5.15584L79.9577 0.984334Z" fill="#FFE564"/>
<path d="M8.04681 0.972307C8.22627 0.587282 8.77373 0.587283 8.95319 0.972308L10.9037 5.15713C10.977 5.31429 11.1264 5.42228 11.2986 5.44249L15.9142 5.98406C16.3395 6.03396 16.5094 6.56044 16.1935 6.84951L12.7882 9.96593C12.659 10.0842 12.6011 10.2615 12.6356 10.4332L13.5406 14.9406C13.6245 15.3584 13.1808 15.6829 12.8081 15.4764L8.74228 13.2242C8.59155 13.1407 8.40845 13.1407 8.25772 13.2242L4.19192 15.4764C3.81919 15.6829 3.37554 15.3584 3.45942 14.9406L4.36444 10.4332C4.39892 10.2615 4.34101 10.0842 4.21178 9.96593L0.806466 6.84951C0.4906 6.56044 0.660503 6.03396 1.08576 5.98406L5.70135 5.44249C5.87357 5.42228 6.02302 5.31429 6.09628 5.15713L8.04681 0.972307Z" fill="#FFE564"/>
<path d="M26.0468 0.972307C26.2263 0.587282 26.7737 0.587283 26.9532 0.972308L28.9037 5.15713C28.977 5.31429 29.1264 5.42228 29.2986 5.44249L33.9142 5.98406C34.3395 6.03396 34.5094 6.56044 34.1935 6.84951L30.7882 9.96593C30.659 10.0842 30.6011 10.2615 30.6356 10.4332L31.5406 14.9406C31.6245 15.3584 31.1808 15.6829 30.8081 15.4764L26.7423 13.2242C26.5916 13.1407 26.4084 13.1407 26.2577 13.2242L22.1919 15.4764C21.8192 15.6829 21.3755 15.3584 21.4594 14.9406L22.3644 10.4332C22.3989 10.2615 22.341 10.0842 22.2118 9.96593L18.8065 6.84951C18.4906 6.56044 18.6605 6.03396 19.0858 5.98406L23.7014 5.44249C23.8736 5.42228 24.023 5.31429 24.0963 5.15713L26.0468 0.972307Z" fill="#FFE564"/>
<path d="M44.0468 0.972307C44.2263 0.587282 44.7737 0.587283 44.9532 0.972308L46.9037 5.15713C46.977 5.31429 47.1264 5.42228 47.2986 5.44249L51.9142 5.98406C52.3395 6.03396 52.5094 6.56044 52.1935 6.84951L48.7882 9.96593C48.659 10.0842 48.6011 10.2615 48.6356 10.4332L49.5406 14.9406C49.6245 15.3584 49.1808 15.6829 48.8081 15.4764L44.7423 13.2242C44.5916 13.1407 44.4084 13.1407 44.2577 13.2242L40.1919 15.4764C39.8192 15.6829 39.3755 15.3584 39.4594 14.9406L40.3644 10.4332C40.3989 10.2615 40.341 10.0842 40.2118 9.96593L36.8065 6.84951C36.4906 6.56044 36.6605 6.03396 37.0858 5.98406L41.7014 5.44249C41.8736 5.42228 42.023 5.31429 42.0963 5.15713L44.0468 0.972307Z" fill="#FFE564"/>
<path d="M62.0468 0.972307C62.2263 0.587282 62.7737 0.587283 62.9532 0.972308L64.9037 5.15713C64.977 5.31429 65.1264 5.42228 65.2986 5.44249L69.9142 5.98406C70.3395 6.03396 70.5094 6.56044 70.1935 6.84951L66.7882 9.96593C66.659 10.0842 66.6011 10.2615 66.6356 10.4332L67.5406 14.9406C67.6245 15.3584 67.1808 15.6829 66.8081 15.4764L62.7423 13.2242C62.5916 13.1407 62.4084 13.1407 62.2577 13.2242L58.1919 15.4764C57.8192 15.6829 57.3755 15.3584 57.4594 14.9406L58.3644 10.4332C58.3989 10.2615 58.341 10.0842 58.2118 9.96593L54.8065 6.84951C54.4906 6.56044 54.6605 6.03396 55.0858 5.98406L59.7014 5.44249C59.8736 5.42228 60.023 5.31429 60.0963 5.15713L62.0468 0.972307Z" fill="#FFE564"/>
<path fill-rule="evenodd" clip-rule="evenodd" d="M83.0216 5.40998L80.9532 0.972308C80.7737 0.587283 80.2263 0.587282 80.0468 0.972307L78.0963 5.15713C78.023 5.31429 77.8736 5.42229 77.7014 5.44249L73.0858 5.98406C72.6605 6.03396 72.4906 6.56044 72.8065 6.84951L76.2118 9.96593C76.341 10.0842 76.3989 10.2615 76.3644 10.4332L75.4594 14.9406C75.3755 15.3584 75.8192 15.6829 76.1919 15.4764L80.2577 13.2242C80.4085 13.1407 80.5916 13.1407 80.7423 13.2242L83.0216 14.4868V5.40998Z" fill="#FFE564"/>
</svg>
