<svg width="17" height="16" viewBox="0 0 17 16" fill="none" xmlns="http://www.w3.org/2000/svg">
<path d="M8.04681 0.972307C8.22627 0.587282 8.77373 0.587283 8.95319 0.972308L10.9037 5.15713C10.977 5.31429 11.1264 5.42229 11.2986 5.44249L15.9142 5.98406C16.3395 6.03396 16.5094 6.56044 16.1935 6.84951L12.7882 9.96593C12.659 10.0842 12.6011 10.2615 12.6356 10.4332L13.5406 14.9406C13.6245 15.3584 13.1808 15.6829 12.8081 15.4764L8.74228 13.2242C8.59155 13.1407 8.40845 13.1407 8.25772 13.2242L4.19192 15.4764C3.81919 15.6829 3.37554 15.3584 3.45942 14.9406L4.36444 10.4332C4.39892 10.2615 4.34101 10.0842 4.21178 9.96593L0.806466 6.84951C0.4906 6.56044 0.660503 6.03396 1.08576 5.98406L5.70135 5.44249C5.87357 5.42229 6.02302 5.31429 6.09628 5.15713L8.04681 0.972307Z" fill="#F1F1F1"/>
</svg>
