<svg width="375" height="69" viewBox="0 0 375 69" fill="none" xmlns="http://www.w3.org/2000/svg">
<path d="M-469.761 79.6196C-491.974 78.3778 -503.595 66.4777 -500.51 48.7827C-499.07 40.0905 -495.059 34.5026 -485.187 29.6391C-488.169 24.9825 -488.786 18.7737 -486.524 13.2893C-482.41 3.45881 -471.304 -1.40471 -459.58 0.354432C-448.988 2.21706 -440.864 10.8058 -442.612 23.0164C-443.229 26.0173 -444.874 28.5008 -447.342 30.4669C-439.218 36.8826 -434.385 42.574 -435.927 55.8193C-437.779 71.4447 -453.616 80.5509 -469.761 79.6196ZM-479.531 48.9897C-480.662 55.5089 -476.857 59.7515 -468.836 60.4759C-461.534 61.2003 -456.701 58.6133 -455.261 51.5767C-454.335 45.4714 -457.421 43.1949 -464.928 42.2635C-473.258 41.0218 -478.605 42.367 -479.531 48.9897ZM-472.846 21.4642C-472.332 25.9138 -467.499 26.2243 -463.591 26.2243C-460.711 26.1208 -457.421 23.7407 -458.038 19.4981C-458.86 15.6694 -462.357 14.1172 -465.648 14.4276C-470.378 14.945 -473.155 17.8424 -472.846 21.4642Z" fill="currentColor"/>
<path d="M-373.803 31.1913C-361.462 33.6748 -356.732 42.2635 -356.526 51.4732C-356.32 74.1352 -379.459 81.8961 -400.232 79.6196C-423.782 77.8604 -430.672 68.6508 -429.335 62.8559C-427.793 56.3367 -423.062 54.3706 -411.236 56.9576C-398.998 59.2341 -377.711 59.6481 -378.533 48.9897C-378.739 43.8157 -387.789 41.7461 -398.484 40.6079C-410.31 39.4696 -420.8 36.5722 -423.474 29.4321C-429.13 14.6346 -411.442 5.11448 -394.37 3.0449C-384.704 2.0101 -376.991 1.69966 -368.661 4.90752C-361.154 7.80494 -360.742 18.5668 -370.512 20.0155C-388.611 20.5329 -402.495 20.119 -401.98 24.879C-401.466 29.4321 -382.853 29.2252 -373.803 31.1913Z" fill="currentColor"/>
<path d="M-303.65 58.4063C-289.87 58.0959 -292.132 77.8604 -302.313 78.4813C-315.888 79.2057 -324.526 78.6883 -340.775 79.4126C-348.179 79.8265 -353.63 76.2048 -353.218 68.0299C-352.498 53.5428 -343.346 13.9102 -340.672 7.70147C-337.793 0.664872 -323.19 1.28575 -311.363 1.18227C-302.828 1.07879 -295.629 2.42402 -292.132 5.63188C-289.253 8.5293 -289.973 15.4624 -294.292 17.8424C-298.714 20.119 -315.58 18.8772 -321.339 20.119C-322.058 21.4642 -323.292 29.0182 -323.601 30.9843C-315.374 30.8808 -300.977 30.2599 -297.274 33.0539C-295.012 35.02 -294.703 40.194 -298.303 42.4705C-307.147 46.4027 -322.881 45.6784 -327.097 45.7818C-327.509 47.1271 -329.257 55.1985 -329.566 60.062C-319.282 59.9585 -309.512 58.7168 -303.65 58.4063Z" fill="currentColor"/>
<path d="M-196.358 14.0137C-196.872 32.5365 -197.387 47.1271 -203.248 62.649C-205.408 68.1334 -209.419 77.55 -219.497 77.9639C-228.546 78.3778 -232.454 71.5482 -235.745 63.6838C-238.83 55.7159 -240.578 45.5749 -242.121 42.0566C-243.252 38.2279 -244.075 34.0887 -246.852 33.3643C-257.135 30.5704 -256.313 65.5464 -265.98 77.343C-269.887 81.0683 -279.965 81.2752 -281.405 73.2038C-282.228 65.7533 -281.2 54.5776 -279.657 47.9549C-277.086 36.5722 -271.738 11.8406 -258.369 4.49361C-251.376 0.561395 -238.419 0.664872 -232.557 11.7372C-229.163 18.3598 -225.358 35.5374 -224.33 41.3322C-223.713 43.7123 -223.199 46.0923 -222.068 46.0923C-221.039 46.0923 -220.731 44.8505 -220.525 43.2983C-219.702 38.0209 -217.954 21.9816 -217.44 14.0137C-217.029 5.94232 -213.121 2.11358 -206.539 2.11358C-200.163 2.11358 -196.152 7.28755 -196.358 14.0137Z" fill="currentColor"/>
<path d="M-131.571 31.1913C-119.23 33.6748 -114.5 42.2635 -114.294 51.4732C-114.088 74.1352 -137.227 81.8961 -158 79.6196C-181.55 77.8604 -188.44 68.6508 -187.103 62.8559C-185.561 56.3367 -180.83 54.3706 -169.004 56.9576C-156.766 59.2341 -135.479 59.6481 -136.302 48.9897C-136.507 43.8157 -145.557 41.7461 -156.252 40.6079C-168.078 39.4696 -178.568 36.5722 -181.242 29.4321C-186.898 14.6346 -169.21 5.11448 -152.139 3.0449C-142.472 2.0101 -134.759 1.69966 -126.429 4.90752C-118.922 7.80494 -118.511 18.5668 -128.28 20.0155C-146.38 20.5329 -160.263 20.119 -159.749 24.879C-159.234 29.4321 -140.621 29.2252 -131.571 31.1913Z" fill="currentColor"/>
<path d="M-61.4185 58.4063C-47.6382 58.0959 -49.9007 77.8604 -60.0816 78.4813C-73.6562 79.2057 -82.2946 78.6883 -98.5431 79.4126C-105.947 79.8265 -111.398 76.2048 -110.986 68.0299C-110.267 53.5428 -101.114 13.9102 -98.4402 7.70147C-95.5608 0.664872 -80.9577 1.28575 -69.1314 1.18227C-60.5958 1.07879 -53.3972 2.42402 -49.9007 5.63188C-47.0212 8.5293 -47.7411 15.4624 -52.0603 17.8424C-56.4823 20.119 -73.3477 18.8772 -79.1067 20.119C-79.8265 21.4642 -81.0606 29.0182 -81.3691 30.9843C-73.1421 30.8808 -58.7447 30.2599 -55.0425 33.0539C-52.7801 35.02 -52.4716 40.194 -56.071 42.4705C-64.915 46.4027 -80.6492 45.6784 -84.8656 45.7818C-85.2769 47.1271 -87.0252 55.1985 -87.3337 60.062C-77.0499 59.9585 -67.2803 58.7168 -61.4185 58.4063Z" fill="currentColor"/>
<path d="M-7.1907 79.6196C-29.4037 78.3778 -41.0245 66.4777 -37.9393 48.7827C-36.4996 40.0905 -32.4889 34.5026 -22.6164 29.6391C-25.5987 24.9825 -26.2158 18.7737 -23.9533 13.2893C-19.8398 3.45881 -8.73328 -1.40471 2.99026 0.354432C13.5826 2.21706 21.7068 10.8058 19.9586 23.0164C19.3415 26.0173 17.6961 28.5008 15.228 30.4669C23.3522 36.8826 28.1856 42.574 26.643 55.8193C24.7919 71.4447 8.95486 80.5509 -7.1907 79.6196ZM-16.9604 48.9897C-18.0916 55.5089 -14.2866 59.7515 -6.2652 60.4759C1.03632 61.2003 5.86969 58.6133 7.30942 51.5767C8.23499 45.4714 5.14984 43.1949 -2.35733 42.2635C-10.6872 41.0218 -16.0348 42.367 -16.9604 48.9897ZM-10.2759 21.4642C-9.76169 25.9138 -4.92828 26.2243 -1.02045 26.2243C1.85904 26.1208 5.14984 23.7407 4.53281 19.4981C3.71011 15.6694 0.213623 14.1172 -3.07721 14.4276C-7.80774 14.945 -10.5844 17.8424 -10.2759 21.4642Z" fill="currentColor"/>
<path d="M88.7676 31.1913C101.108 33.6748 105.839 42.2635 106.044 51.4732C106.25 74.1352 83.1115 81.8961 62.3382 79.6196C38.7883 77.8604 31.8981 68.6508 33.235 62.8559C34.7776 56.3367 39.5082 54.3706 51.3345 56.9576C63.5723 59.2341 84.8598 59.6481 84.0371 48.9897C83.8314 43.8157 74.7817 41.7461 64.0865 40.6079C52.2601 39.4696 41.7706 36.5722 39.0969 29.4321C33.4407 14.6346 51.1289 5.11448 68.2 3.0449C77.8668 2.0101 85.5797 1.69966 93.9095 4.90752C101.417 7.80494 101.828 18.5668 92.0584 20.0155C73.9589 20.5329 60.0758 20.119 60.59 24.879C61.1042 29.4321 79.7179 29.2252 88.7676 31.1913Z" fill="currentColor"/>
<path d="M158.92 58.4063C172.7 58.0959 170.438 77.8604 160.257 78.4813C146.682 79.2057 138.044 78.6883 121.795 79.4126C114.391 79.8265 108.941 76.2048 109.352 68.0299C110.072 53.5428 119.225 13.9102 121.898 7.70147C124.778 0.664872 139.381 1.28575 151.207 1.18227C159.743 1.07879 166.941 2.42402 170.438 5.63188C173.317 8.5293 172.598 15.4624 168.278 17.8424C163.856 20.119 146.991 18.8772 141.232 20.119C140.512 21.4642 139.278 29.0182 138.969 30.9843C147.197 30.8808 161.594 30.2599 165.296 33.0539C167.558 35.02 167.867 40.194 164.268 42.4705C155.424 46.4027 139.689 45.6784 135.473 45.7818C135.062 47.1271 133.313 55.1985 133.005 60.062C143.289 59.9585 153.058 58.7168 158.92 58.4063Z" fill="currentColor"/>
<path d="M266.212 14.0137C265.698 32.5365 265.184 47.1271 259.322 62.649C257.163 68.1334 253.152 77.55 243.074 77.9639C234.024 78.3778 230.116 71.5482 226.825 63.6838C223.74 55.7159 221.992 45.5749 220.449 42.0566C219.318 38.2279 218.495 34.0887 215.719 33.3643C205.435 30.5704 206.258 65.5464 196.591 77.343C192.683 81.0683 182.605 81.2752 181.165 73.2038C180.342 65.7533 181.371 54.5776 182.913 47.9549C185.484 36.5722 190.832 11.8406 204.201 4.49361C211.194 0.561395 224.152 0.664872 230.013 11.7372C233.407 18.3598 237.212 35.5374 238.24 41.3322C238.857 43.7123 239.372 46.0923 240.503 46.0923C241.531 46.0923 241.84 44.8505 242.045 43.2983C242.868 38.0209 244.616 21.9816 245.13 14.0137C245.542 5.94232 249.45 2.11358 256.031 2.11358C262.407 2.11358 266.418 7.28755 266.212 14.0137Z" fill="currentColor"/>
<path d="M331.602 31.1913C343.943 33.6748 348.673 42.2635 348.879 51.4732C349.084 74.1352 325.946 81.8961 305.173 79.6196C281.623 77.8604 274.733 68.6508 276.069 62.8559C277.612 56.3367 282.343 54.3706 294.169 56.9576C306.407 59.2341 327.694 59.6481 326.872 48.9897C326.666 43.8157 317.616 41.7461 306.921 40.6079C295.094 39.4696 284.605 36.5722 281.931 29.4321C276.275 14.6346 293.963 5.11448 311.034 3.0449C320.701 2.0101 328.414 1.69966 336.744 4.90752C344.251 7.80494 344.662 18.5668 334.893 20.0155C316.793 20.5329 302.91 20.119 303.424 24.879C303.939 29.4321 322.552 29.2252 331.602 31.1913Z" fill="currentColor"/>
<path d="M401.754 58.4063C415.535 58.0959 413.272 77.8604 403.091 78.4813C389.517 79.2057 380.878 78.6883 364.63 79.4126C357.226 79.8265 351.775 76.2048 352.186 68.0299C352.906 53.5428 362.059 13.9102 364.733 7.70147C367.612 0.664872 382.215 1.28575 394.042 1.18227C402.577 1.07879 409.776 2.42402 413.272 5.63188C416.152 8.5293 415.432 15.4624 411.113 17.8424C406.691 20.119 389.825 18.8772 384.066 20.119C383.346 21.4642 382.112 29.0182 381.804 30.9843C390.031 30.8808 404.428 30.2599 408.13 33.0539C410.393 35.02 410.701 40.194 407.102 42.4705C398.258 46.4027 382.524 45.6784 378.307 45.7818C377.896 47.1271 376.148 55.1985 375.839 60.062C386.123 59.9585 395.893 58.7168 401.754 58.4063Z" fill="currentColor"/>
</svg>
